<?xml version="1.0" ?><!-- Uploaded to: SVG Repo, www.svgrepo.com, Generator: SVG Repo Mixer Tools -->
<svg width="800px" height="800px" viewBox="0 0 64 64" data-name="Layer 1" id="Layer_1" xmlns="http://www.w3.org/2000/svg"><defs><style>
      .cls-1 {
        fill: #f5dd90;
      }

      .cls-2 {
        fill: #ffbc0a;
      }

      .cls-3 {
        fill: #8b8c89;
      }

      .cls-4 {
        fill: #6096ba;
      }

      .cls-5 {
        fill: #274c77;
      }
    </style></defs><polyline class="cls-4" points="20 51 20 25 32 13 44 25 44 51"/><circle class="cls-2" cx="32" cy="27" r="5"/><polyline class="cls-1" points="12 12 2 12 6 15 2 18 12 18"/><rect class="cls-5" height="20" width="11" x="9" y="31"/><rect class="cls-5" height="20" width="11" x="44" y="31"/><polyline class="cls-1" points="28 51 28 43 36 43 36 51"/><polyline class="cls-3" points="44 25 57 25 57 31 44 31"/><polyline class="cls-3" points="20 31 7 31 7 25 20 25"/><rect class="cls-3" height="2" width="60" x="2" y="51"/><rect class="cls-2" height="8" width="2" x="31" y="43"/><path class="cls-1" d="M32,32c-2.76,0-5-2.24-5-5s2.24-5,5-5"/><rect class="cls-4" height="14" width="2" x="12" y="11"/><polyline class="cls-1" points="52 12 62 12 58 15 62 18 52 18"/><rect class="cls-4" height="14" transform="translate(102 36) rotate(-180)" width="2" x="50" y="11"/></svg>