<svg viewBox="0 0 147 307" fill="none" xmlns="http://www.w3.org/2000/svg"><path fill-rule="evenodd" clip-rule="evenodd" d="M50.1953 264.475C50.1953 261.348 52.7299 258.813 55.8564 258.813H90.0253C93.1518 258.813 95.6864 261.348 95.6864 264.475C95.6864 267.601 93.1518 270.136 90.0253 270.136H55.8564C52.7299 270.136 50.1953 267.601 50.1953 264.475Z" fill="#CC348D"/><path fill-rule="evenodd" clip-rule="evenodd" d="M19.2055 147.768L37.8296 135.673C43.2582 132.148 50.5169 133.69 54.0423 139.119C57.5677 144.548 56.0248 151.806 50.5962 155.332L31.9721 167.426C26.5434 170.952 19.2848 169.409 15.7594 163.98C12.234 158.552 13.7769 151.293 19.2055 147.768Z" fill="#CC348D"/><path fill-rule="evenodd" clip-rule="evenodd" d="M127.94 147.768L109.316 135.673C103.887 132.148 96.6285 133.69 93.1031 139.119C89.5777 144.548 91.1206 151.806 96.5492 155.332L115.173 167.426C120.602 170.952 127.861 169.409 131.386 163.98C134.911 158.552 133.369 151.293 127.94 147.768Z" fill="#CC348D"/><path fill-rule="evenodd" clip-rule="evenodd" d="M73.4778 124.422H73.68C98.5249 124.422 118.666 144.563 118.666 169.407C118.666 194.004 98.9257 213.99 74.4239 214.387L73.4778 214.393C48.633 214.393 28.4922 194.252 28.4922 169.407C28.4922 144.563 48.633 124.422 73.4778 124.422Z" fill="#CC348D"/><path fill-rule="evenodd" clip-rule="evenodd" d="M117.332 180.324L29.8254 180.324C29.2376 177.966 28.8359 175.534 28.6367 173.045H118.52C118.321 175.534 117.919 177.966 117.332 180.324Z" fill="#00448E"/><path fill-rule="evenodd" clip-rule="evenodd" d="M74.4256 214.387L73.4795 214.393C51.751 214.393 33.6206 198.988 29.4141 178.504H117.747C113.589 198.754 95.8229 214.04 74.4256 214.387Z" fill="#0084C2"/><path d="M72.5695 103.519C95.3486 103.519 113.815 85.0525 113.815 62.2733C113.815 39.4942 95.3486 21.0281 72.5695 21.0281C49.7904 21.0281 31.3242 39.4942 31.3242 62.2733C31.3242 85.0525 49.7904 103.519 72.5695 103.519Z" fill="#0084C2"/><path fill-rule="evenodd" clip-rule="evenodd" d="M93.5738 26.7683C94.737 27.4579 95.8634 28.203 96.9494 29L63.404 55.416L61.0273 52.398L93.5738 26.7683Z" fill="#006AAD"/><path fill-rule="evenodd" clip-rule="evenodd" d="M46.4883 61.3649L73.161 42.5378L99.4601 61.3649V120.378H46.4883V61.3649Z" fill="#C6775C"/><path fill-rule="evenodd" clip-rule="evenodd" d="M61.279 57.4996C66.5439 57.4996 70.8119 61.7676 70.8119 67.0325V72.8311C70.8119 78.096 66.5439 82.364 61.279 82.364C56.0141 82.364 51.7461 78.096 51.7461 72.8311V67.0325C51.7461 61.7676 56.0141 57.4996 61.279 57.4996Z" fill="white"/><path fill-rule="evenodd" clip-rule="evenodd" d="M84.529 57.4996C89.7939 57.4996 94.0619 61.7676 94.0619 67.0325V72.8311C94.0619 78.096 89.7939 82.364 84.529 82.364C79.2641 82.364 74.9961 78.096 74.9961 72.8311V67.0325C74.9961 61.7676 79.2641 57.4996 84.529 57.4996Z" fill="white"/><path fill-rule="evenodd" clip-rule="evenodd" d="M63.9087 64.3941C66.2723 64.3941 68.1884 66.3102 68.1884 68.6739V74.0493C68.1884 76.413 66.2723 78.3291 63.9087 78.3291C61.545 78.3291 59.6289 76.413 59.6289 74.0493V68.6739L59.6361 68.4228C59.7336 68.4331 59.8324 68.4378 59.9322 68.4378C61.6629 68.4378 63.066 67.0347 63.066 65.3039C63.066 65.0256 63.0297 64.7558 62.9617 64.499C63.2665 64.4304 63.5833 64.3941 63.9087 64.3941Z" fill="#3D3D3D"/><path fill-rule="evenodd" clip-rule="evenodd" d="M81.7837 64.4601C84.1473 64.4601 86.0634 66.3763 86.0634 68.7399V74.1154C86.0634 76.479 84.1473 78.3951 81.7837 78.3951C79.42 78.3951 77.5039 76.479 77.5039 74.1154V68.7399L77.5111 68.4889C77.6087 68.4991 77.7074 68.5038 77.8072 68.5038C79.5379 68.5038 80.941 67.1007 80.941 65.37C80.941 65.0917 80.9047 64.8219 80.8367 64.565C81.1415 64.4964 81.4583 64.4601 81.7837 64.4601Z" fill="#3D3D3D"/><path d="M52.0896 71.1445C56.3486 70.7719 66.8771 72.4938 72.1802 76.179C74.5418 77.8201 75.1259 81.0649 73.4848 83.4266C71.8966 85.712 68.8065 86.3328 66.4684 84.8831L66.2372 84.7312C64.6304 83.6146 61.6947 82.6849 58.1372 82.103C56.7688 81.8792 55.4002 81.7205 54.1375 81.6224L53.6074 81.5845L53.1344 81.5569L52.7245 81.5381L52.9973 81.5192C50.1324 81.7699 47.6067 79.6506 47.3561 76.7857C47.1054 73.9208 49.2247 71.3951 52.0896 71.1445Z" fill="#C6775C"/><path d="M93.1041 73.6118C88.8451 73.2391 78.3166 74.9611 73.0135 78.6463C70.6519 80.2874 70.0678 83.5322 71.7089 85.8939C73.2971 88.1793 76.3872 88.8 78.7253 87.3504L78.9565 87.1985C80.5633 86.0819 83.4989 85.1521 87.0565 84.5703C88.4249 84.3465 89.7935 84.1878 91.0562 84.0897L91.5863 84.0518L92.0593 84.0242L92.4692 84.0054L92.1964 83.9865C95.0613 84.2371 97.587 82.1179 97.8376 79.253C98.0883 76.3881 95.969 73.8624 93.1041 73.6118Z" fill="#C6775C"/><path d="M48.6941 139.182C49.4818 138.394 50.7302 138.348 51.5721 139.043L51.725 139.182L55.7304 143.188L59.7369 139.182C60.5246 138.394 61.7729 138.348 62.6148 139.043L62.7677 139.182C63.5554 139.97 63.6018 141.218 62.9067 142.06L62.7677 142.213L57.2463 147.734C56.4586 148.522 55.2103 148.568 54.3684 147.873L54.2155 147.734L48.6941 142.213C47.8572 141.376 47.8572 140.019 48.6941 139.182Z" fill="#A71E6E"/><path d="M66.0808 139.182C66.8685 138.394 68.1169 138.348 68.9588 139.043L69.1117 139.182L73.1173 143.187L77.1236 139.182C77.9113 138.394 79.1596 138.348 80.0016 139.043L80.1544 139.182C80.9422 139.97 80.9885 141.218 80.2934 142.06L80.1544 142.213L74.6331 147.734C73.8454 148.522 72.597 148.568 71.7551 147.873L71.6022 147.734L66.0808 142.213C65.2439 141.376 65.2439 140.019 66.0808 139.182Z" fill="#A71E6E"/><path d="M83.4676 139.182C84.2553 138.394 85.5036 138.348 86.3455 139.043L86.4984 139.182L90.5041 143.187L94.5103 139.182C95.298 138.394 96.5464 138.348 97.3883 139.043L97.5412 139.182C98.3289 139.97 98.3752 141.218 97.6802 142.06L97.5412 142.213L92.0198 147.734C91.2321 148.522 89.9837 148.568 89.1418 147.873L88.9889 147.734L83.4676 142.213C82.6306 141.376 82.6306 140.019 83.4676 139.182Z" fill="#A71E6E"/><path d="M57.1863 152.122C57.974 151.334 59.2224 151.288 60.0643 151.983L60.2172 152.122L64.2225 156.128L68.2291 152.122C69.0168 151.334 70.2651 151.288 71.107 151.983L71.2599 152.122C72.0476 152.91 72.094 154.158 71.3989 155L71.2599 155.153L65.7385 160.674C64.9508 161.462 63.7025 161.508 62.8606 160.813L62.7077 160.674L57.1863 155.153C56.3494 154.316 56.3494 152.959 57.1863 152.122Z" fill="#A71E6E"/><path d="M74.573 152.122C75.3607 151.334 76.6091 151.288 77.451 151.983L77.6039 152.122L81.6094 156.128L85.6158 152.122C86.4035 151.334 87.6518 151.288 88.4937 151.983L88.6466 152.122C89.4343 152.91 89.4807 154.158 88.7856 155L88.6466 155.153L83.1253 160.674C82.3375 161.462 81.0892 161.508 80.2473 160.813L80.0944 160.674L74.573 155.153C73.7361 154.316 73.7361 152.959 74.573 152.122Z" fill="#A71E6E"/><path fill-rule="evenodd" clip-rule="evenodd" d="M61.9046 205.539H83.336C84.4526 205.539 85.3578 206.444 85.3578 207.56V250.625C85.3578 251.742 84.4526 252.647 83.336 252.647H61.9046C60.788 252.647 59.8828 251.742 59.8828 250.625V207.56C59.8828 206.444 60.788 205.539 61.9046 205.539Z" fill="#0084C2"/><path fill-rule="evenodd" clip-rule="evenodd" d="M56.5483 80.6887H90.6141C103.986 80.6887 114.826 91.529 114.826 104.901C114.826 118.273 103.986 129.113 90.6141 129.113H56.5483C43.1762 129.113 32.3359 118.273 32.3359 104.901C32.3359 91.529 43.1762 80.6887 56.5483 80.6887Z" fill="#3D3D3D"/><path d="M55.0306 80.8107C57.3246 79.3784 59.9741 79.0404 62.4033 79.651C64.8017 80.2539 66.9896 81.7851 68.3885 84.1187C69.2477 85.4969 70.7863 85.9768 72.874 86.0954L73.0092 86.1043C75.649 86.2964 77.9862 87.5519 79.6254 89.4491C81.2354 91.3125 82.1688 93.7944 82.0419 96.4682C81.9128 99.1872 80.7139 101.582 78.8934 103.263C77.0453 104.969 74.5568 105.943 71.8687 105.788C63.2837 105.295 56.1441 101.493 51.8572 94.3204C50.4746 92.0072 50.1325 89.3448 50.6976 86.9103C51.2687 84.4496 52.7637 82.2259 55.0306 80.8107Z" fill="white" stroke="#3D3D3D" stroke-width="5.8825"/><path d="M72.8452 83.8822C75.9159 83.8822 78.4052 81.3929 78.4052 78.3222C78.4052 75.2515 75.9159 72.7621 72.8452 72.7621C69.7745 72.7621 67.2852 75.2515 67.2852 78.3222C67.2852 81.3929 69.7745 83.8822 72.8452 83.8822Z" fill="#C6775C"/><path fill-rule="evenodd" clip-rule="evenodd" d="M62.4588 134.968L54.1803 122.694C52.0847 119.588 52.9045 115.37 56.0113 113.275C59.1181 111.179 63.3354 111.999 65.431 115.106L73.7095 127.379C75.8051 130.486 74.9853 134.703 71.8785 136.799C68.7717 138.894 64.5544 138.075 62.4588 134.968Z" fill="#C6775C"/><path fill-rule="evenodd" clip-rule="evenodd" d="M84.8372 134.968L93.1158 122.694C95.2113 119.588 94.3915 115.37 91.2848 113.275C88.178 111.179 83.9606 111.999 81.8651 115.106L73.5865 127.379C71.491 130.486 72.3107 134.703 75.4175 136.799C78.5243 138.894 82.7416 138.075 84.8372 134.968Z" fill="#C6775C"/><path fill-rule="evenodd" clip-rule="evenodd" d="M31.5727 139.857L49.1621 128.434C54.5908 124.909 61.8494 126.452 65.3748 131.881C68.9002 137.309 67.3573 144.568 61.9287 148.093L44.3393 159.516C38.9106 163.041 31.652 161.499 28.1266 156.07C24.6012 150.641 26.1441 143.383 31.5727 139.857Z" fill="#CC348D"/><path fill-rule="evenodd" clip-rule="evenodd" d="M115.573 139.857L97.9838 128.434C92.5552 124.909 85.2965 126.452 81.7711 131.881C78.2457 137.309 79.7886 144.568 85.2172 148.093L102.807 159.516C108.235 163.041 115.494 161.499 119.019 156.07C122.545 150.641 121.002 143.383 115.573 139.857Z" fill="#CC348D"/><rect opacity="0.3" x="29.6328" y="270.037" width="88.0165" height="8.18294" rx="4.09147" fill="#AFAFAF"/></svg>