<svg viewBox="0 0 147 307" fill="none" xmlns="http://www.w3.org/2000/svg"><g clip-path="url(#clip0)"><rect opacity="0.3" x="25.1367" y="270.037" width="106.179" height="8.18294" rx="4.09147" fill="#AFAFAF"/><path fill-rule="evenodd" clip-rule="evenodd" d="M91.7334 189.843H115.167C117.457 189.843 119.314 191.7 119.314 193.991V254.122C119.314 256.412 117.457 258.269 115.167 258.269H91.7334C89.4428 258.269 87.5859 256.412 87.5859 254.122V193.991C87.5859 191.7 89.4428 189.843 91.7334 189.843Z" fill="#744007"/><path fill-rule="evenodd" clip-rule="evenodd" d="M66.1155 188.441L88.7504 194.506C90.9629 195.099 92.2759 197.373 91.6831 199.586L76.9115 254.714C76.3186 256.927 74.0445 258.24 71.832 257.647L49.197 251.582C46.9845 250.989 45.6715 248.715 46.2644 246.502L61.0359 191.374C61.6288 189.162 63.903 187.849 66.1155 188.441Z" fill="#744007"/><path d="M121.1 261.635H95.3626C93.0222 261.635 91.125 263.532 91.125 265.872C91.125 268.212 93.0222 270.11 95.3626 270.11H121.1C123.441 270.11 125.338 268.212 125.338 265.872C125.338 263.532 123.441 261.635 121.1 261.635Z" fill="#FFB100"/><path d="M60.909 261.635H35.1712C32.8308 261.635 30.9336 263.532 30.9336 265.872C30.9336 268.212 32.8308 270.11 35.1712 270.11H60.909C63.2493 270.11 65.1466 268.212 65.1466 265.872C65.1466 263.532 63.2493 261.635 60.909 261.635Z" fill="#FFB100"/><path d="M130.067 104.988C134.449 104.988 138.001 101.436 138.001 97.0542C138.001 92.6723 134.449 89.1201 130.067 89.1201C125.685 89.1201 122.133 92.6723 122.133 97.0542C122.133 101.436 125.685 104.988 130.067 104.988Z" fill="#FFCBA3"/><path d="M86.9709 98.1633C101.733 98.1633 113.699 86.1967 113.699 71.435C113.699 56.6734 101.733 44.7067 86.9709 44.7067H62.0626C47.301 44.7067 35.3343 56.6734 35.3343 71.435C35.3343 86.1967 47.301 98.1633 62.0626 98.1633H86.9709Z" fill="#3D3D3D"/><mask id="mask0" mask-type="alpha" maskUnits="userSpaceOnUse" x="40" y="70" width="92" height="56"><path d="M104.447 70.3207H67.6148C52.6764 70.3207 40.5664 82.4307 40.5664 97.3691V98.9038C40.5664 113.842 52.6764 125.952 67.6148 125.952H104.447C119.385 125.952 131.495 113.842 131.495 98.9038V97.3691C131.495 82.4307 119.385 70.3207 104.447 70.3207Z" fill="white"/></mask><g mask="url(#mask0)"><path d="M104.451 70.3209H67.6187C52.6803 70.3209 40.5703 82.4309 40.5703 97.3693V98.904C40.5703 113.842 52.6803 125.952 67.6187 125.952H104.451C119.389 125.952 131.499 113.842 131.499 98.904V97.3693C131.499 82.4309 119.389 70.3209 104.451 70.3209Z" fill="#FFCBA3"/><path opacity="0.689174" d="M158.899 70.1882C158.899 57.5902 148.686 47.3774 136.088 47.3774C123.49 47.3774 113.277 57.5902 113.277 70.1882V72.159C113.277 84.7571 123.49 94.9698 136.088 94.9698C148.686 94.9698 158.899 84.7571 158.899 72.159V70.1882Z" fill="#C4C4C4"/></g><path fill-rule="evenodd" clip-rule="evenodd" d="M52.5195 177.545H119.416V193.791H52.5195V177.545Z" fill="#D8D8D8"/><path fill-rule="evenodd" clip-rule="evenodd" d="M84.4094 76.3593C89.371 76.3593 93.3931 80.3814 93.3931 85.3429V90.886C93.3931 95.8476 89.371 99.8697 84.4094 99.8697C79.4479 99.8697 75.4258 95.8476 75.4258 90.886V85.3429C75.4258 80.3814 79.4479 76.3593 84.4094 76.3593Z" fill="#E99B5F"/><path fill-rule="evenodd" clip-rule="evenodd" d="M84.4094 79.6085C89.371 79.6085 93.3931 83.6306 93.3931 88.5921V94.1352C93.3931 99.0968 89.371 103.119 84.4094 103.119C79.4479 103.119 75.4258 99.0968 75.4258 94.1352V88.5921C75.4258 83.6306 79.4479 79.6085 84.4094 79.6085Z" fill="white"/><path fill-rule="evenodd" clip-rule="evenodd" d="M85.0148 84.9605C87.2494 84.9605 89.0609 86.772 89.0609 89.0066V94.0885C89.0609 96.3231 87.2494 98.1345 85.0148 98.1345C82.7802 98.1345 80.9688 96.3231 80.9688 94.0885V89.0066C80.9688 86.772 82.7802 84.9605 85.0148 84.9605Z" fill="#3D3D3D"/><path fill-rule="evenodd" clip-rule="evenodd" d="M105.684 76.359C100.723 76.359 96.7006 80.3811 96.7006 85.3427V90.8858C96.7006 95.8473 100.723 99.8695 105.684 99.8695C110.646 99.8695 114.668 95.8473 114.668 90.8858V85.3427C114.668 80.3811 110.646 76.359 105.684 76.359Z" fill="#E99B5F"/><path fill-rule="evenodd" clip-rule="evenodd" d="M105.684 79.6085C100.723 79.6085 96.7006 83.6306 96.7006 88.5921V94.1352C96.7006 99.0968 100.723 103.119 105.684 103.119C110.646 103.119 114.668 99.0968 114.668 94.1352V88.5921C114.668 83.6306 110.646 79.6085 105.684 79.6085Z" fill="white"/><path d="M83.604 89.3567C81.8622 89.3567 80.4501 87.9447 80.4501 86.2029C80.4501 84.461 81.8622 83.049 83.604 83.049C85.3458 83.049 86.7578 84.461 86.7578 86.2029C86.7578 87.9447 85.3458 89.3567 83.604 89.3567Z" fill="white"/><mask id="mask1" mask-type="alpha" maskUnits="userSpaceOnUse" x="97" y="84" width="9" height="15"><path d="M101.829 84.9605C99.5944 84.9605 97.7829 86.772 97.7829 89.0066V94.0885C97.7829 96.3231 99.5944 98.1345 101.829 98.1345C104.064 98.1345 105.875 96.3231 105.875 94.0885V89.0066C105.875 86.772 104.064 84.9605 101.829 84.9605Z" fill="white"/></mask><g mask="url(#mask1)"><path d="M101.829 84.9604C99.5944 84.9604 97.7829 86.7719 97.7829 89.0065V94.0884C97.7829 96.323 99.5944 98.1345 101.829 98.1345C104.064 98.1345 105.875 96.323 105.875 94.0884V89.0065C105.875 86.7719 104.064 84.9604 101.829 84.9604Z" fill="#3D3D3D"/><path d="M99.5111 89.3564C101.306 89.3564 102.761 87.9016 102.761 86.107C102.761 84.3124 101.306 82.8575 99.5111 82.8575C97.7165 82.8575 96.2617 84.3124 96.2617 86.107C96.2617 87.9016 97.7165 89.3564 99.5111 89.3564Z" fill="white"/></g><path fill-rule="evenodd" clip-rule="evenodd" d="M105.622 77.9641C100.678 77.9641 96.6703 81.972 96.6703 86.9161V89.8144H114.574V86.9161C114.574 81.972 110.566 77.9641 105.622 77.9641Z" fill="#E99B5F"/><path fill-rule="evenodd" clip-rule="evenodd" d="M84.4074 77.9641C79.4634 77.9641 75.4555 81.972 75.4555 86.9161V89.8144H93.3594V86.9161C93.3594 81.972 89.3515 77.9641 84.4074 77.9641Z" fill="#E99B5F"/><path fill-rule="evenodd" clip-rule="evenodd" d="M95.7086 107.319C97.8 107.319 99.4954 105.625 99.4954 103.534C99.4954 101.444 95.7086 96.5 95.7086 96.5C95.7086 96.5 91.9219 101.444 91.9219 103.534C91.9219 105.625 93.6173 107.319 95.7086 107.319Z" fill="#E99B5F"/><mask id="mask2" mask-type="alpha" maskUnits="userSpaceOnUse" x="46" y="134" width="80" height="80"><path d="M85.6798 213.86C107.584 213.86 125.34 196.104 125.34 174.2C125.34 152.296 107.584 134.54 85.6798 134.54C63.7761 134.54 46.0195 152.296 46.0195 174.2C46.0195 196.104 63.7761 213.86 85.6798 213.86Z" fill="white"/></mask><g mask="url(#mask2)"><path d="M85.6798 213.86C107.584 213.86 125.34 196.104 125.34 174.2C125.34 152.296 107.584 134.54 85.6798 134.54C63.7761 134.54 46.0195 152.296 46.0195 174.2C46.0195 196.104 63.7761 213.86 85.6798 213.86Z" fill="white"/><path d="M134.708 219.594H33.5977V173.722H134.708V219.594Z" fill="#744007"/></g><path fill-rule="evenodd" clip-rule="evenodd" d="M71.5273 120.454H100.49V137.701C100.49 145.698 94.0067 152.182 86.0088 152.182C78.0109 152.182 71.5273 145.698 71.5273 137.701V120.454Z" fill="#FFCBA3"/><path d="M88.0156 73.8821V71.9924C88.0156 60.3748 78.5977 50.9568 66.9801 50.9568H56.2982C44.6806 50.9568 35.2626 60.3748 35.2626 71.9924V73.8821C35.2626 85.4997 44.6806 94.9177 56.2982 94.9177H66.9801C78.5977 94.9177 88.0156 85.4997 88.0156 73.8821Z" fill="#3D3D3D"/><path fill-rule="evenodd" clip-rule="evenodd" d="M71.4422 137.216L71.442 178.883L71.4424 178.883V245.589H44.8748C43.2914 245.589 42.0078 244.305 42.0078 242.722V178.883C42.0078 178.851 42.0078 178.819 42.0078 178.787C42.0078 159.581 54.2977 143.246 71.4422 137.216Z" fill="#C86902"/><path d="M43.2662 104.988C47.6482 104.988 51.2004 101.436 51.2004 97.0542C51.2004 92.6723 47.6482 89.1201 43.2662 89.1201C38.8843 89.1201 35.332 92.6723 35.332 97.0542C35.332 101.436 38.8843 104.988 43.2662 104.988Z" fill="#FFCBA3"/><path d="M44.1696 109.262C46.261 109.262 47.9564 107.567 47.9564 105.475C47.9564 103.384 46.261 101.689 44.1696 101.689C42.0782 101.689 40.3828 103.384 40.3828 105.475C40.3828 107.567 42.0782 109.262 44.1696 109.262Z" fill="#C86902"/><path fill-rule="evenodd" clip-rule="evenodd" d="M100.493 245.589H103.934C105.517 245.589 106.801 244.305 106.801 242.722V178.787C106.801 159.581 104.167 143.245 100.493 137.216L100.493 245.589Z" fill="white"/><path fill-rule="evenodd" clip-rule="evenodd" d="M99.7305 173.722H106.802V247.5H99.7305V173.722Z" fill="#744007"/><path fill-rule="evenodd" clip-rule="evenodd" d="M71.2512 245.589H74.6916C76.275 245.589 77.5586 244.305 77.5586 242.722V178.787C77.5586 159.581 74.925 143.245 71.2511 137.216L71.2512 245.589Z" fill="#C86902"/><path fill-rule="evenodd" clip-rule="evenodd" d="M73.8336 195.639L47.7532 205.599L47.7532 211.861C47.7532 216.343 51.3862 219.976 55.8677 219.976C56.09 219.976 56.3123 219.967 56.5338 219.948L66.3853 219.137C70.5943 218.79 73.8336 215.273 73.8336 211.05L73.8336 195.639Z" fill="#B45E00"/><path d="M66.0153 164.998L53.3065 181.264C49.9271 185.59 43.681 186.357 39.3555 182.977C35.03 179.598 34.2631 173.352 37.6425 169.026L50.3513 152.76C53.7307 148.434 59.9768 147.667 64.3023 151.047C68.6278 154.426 69.3948 160.672 66.0153 164.998Z" fill="#C86902"/><path d="M19.152 159.365L32.3191 180.436C35.2279 185.091 41.3596 186.507 46.0147 183.598C50.6697 180.689 52.0853 174.558 49.1765 169.903L36.0094 148.831C33.1006 144.176 26.9689 142.76 22.3138 145.669C17.6588 148.578 16.2432 154.709 19.152 159.365Z" fill="#C86902"/><path d="M26.5732 162.894L20.6517 162.688C15.1659 162.496 10.874 157.894 11.0656 152.408C11.2572 146.922 15.8596 142.63 21.3454 142.822L27.2669 143.029C32.7527 143.22 37.0446 147.823 36.853 153.308C36.6614 158.794 32.059 163.086 26.5732 162.894Z" fill="#FFCBA3"/><path d="M25.1602 150.552L4.91234 149.845C2.85517 149.773 1.24574 148.047 1.31757 145.99C1.38941 143.933 3.11532 142.323 5.17249 142.395L25.4203 143.102C27.4775 143.174 29.087 144.9 29.0151 146.957C28.9433 149.014 27.2174 150.624 25.1602 150.552Z" fill="#FFCBA3"/><path d="M26.1134 151.796L26.6004 137.852C26.6722 135.795 28.3981 134.185 30.4553 134.257C32.5125 134.329 34.1219 136.055 34.0501 138.112L33.5631 152.056C33.4913 154.113 31.7654 155.723 29.7082 155.651C27.651 155.579 26.0416 153.853 26.1134 151.796Z" fill="#FFCBA3"/><path d="M81.3903 129.847L80.2317 130.516C74.0609 134.078 71.9467 141.969 75.5094 148.139L77.0384 150.788C80.6011 156.959 88.4916 159.073 94.6623 155.51L95.821 154.841C101.992 151.279 104.106 143.388 100.543 137.217L99.0142 134.569C95.4515 128.398 87.5611 126.284 81.3903 129.847Z" fill="#FFCBA3"/><path d="M76.93 104.101C79.9771 103.079 83.2482 104.582 84.5223 107.482C85.336 108.489 86.4278 109.396 87.8586 109.847C88.2363 109.912 88.6498 109.966 89.0997 110.005L89.2015 110.015C92.5533 110.364 95.0154 113.367 94.7175 116.771C94.4167 120.211 91.4136 122.757 88.0101 122.459C80.4975 121.802 75.0604 118.322 72.9944 112.003C71.9234 108.727 73.6854 105.189 76.93 104.101Z" fill="#B23131"/><path d="M78.7704 113.028C83.6589 113.028 87.6219 116.991 87.6219 121.879C87.6219 122.061 87.6164 122.242 87.6056 122.421C81.309 121.778 76.517 119.112 74.0156 114.412C75.3892 113.536 77.0205 113.028 78.7704 113.028Z" fill="#FF4B4B"/><path fill-rule="evenodd" clip-rule="evenodd" d="M105.973 148.987C101.673 153.14 101.553 159.993 105.706 164.294L125.869 187.774C130.022 192.074 136.875 192.194 141.175 188.041C145.476 183.888 145.595 177.035 141.442 172.735L117.6 148.044C113.447 143.744 110.274 144.834 105.973 148.987Z" fill="#C86902"/><path fill-rule="evenodd" clip-rule="evenodd" d="M115.338 146.042C124.159 153.934 131.197 165.405 131.197 178.173L131.052 179.19V179.19L130.914 180.177V180.177L130.784 181.134V181.134L130.662 182.061V182.061L130.547 182.958V182.958L130.439 183.824V183.824L130.358 184.496V184.496L130.263 185.309V185.309L130.176 186.091V186.091L130.097 186.844V186.844L130.025 187.566V187.566L129.96 188.258V188.258L129.936 188.527V188.527L129.892 189.049V189.049L129.853 189.552V189.552L129.835 189.797V189.797L129.811 190.154V190.154L129.796 190.387V190.387L129.776 190.726V190.726L129.764 190.947V190.947L129.748 191.268V191.268L129.739 191.477V191.477L129.728 191.78V191.78L129.722 191.976V191.976L129.716 192.262V192.262L129.713 192.446V192.446L129.71 192.713V192.713L129.71 236.682C129.71 240.35 126.737 243.323 123.069 243.323L100.699 243.323L100.699 137.428C106.16 139.316 111.122 142.271 115.338 146.042Z" fill="#C86902"/><path fill-rule="evenodd" clip-rule="evenodd" d="M114.496 185.849L115.411 185.321C120.588 182.331 127.209 184.105 130.198 189.283C133.187 194.46 131.413 201.081 126.236 204.07L125.321 204.598C120.144 207.587 113.523 205.813 110.534 200.636C107.545 195.458 109.319 188.838 114.496 185.849Z" fill="#FFCBA3"/><path fill-rule="evenodd" clip-rule="evenodd" d="M130.502 200.388L114.668 185.623L126.132 173.329C130.209 168.957 137.059 168.717 141.432 172.795C145.804 176.872 146.043 183.722 141.966 188.094L130.502 200.388Z" fill="#C86902"/><path fill-rule="evenodd" clip-rule="evenodd" d="M104.406 191.542L129.864 201.264V207.377C129.864 211.751 126.318 215.298 121.943 215.298C121.726 215.298 121.509 215.289 121.293 215.271L111.677 214.479C107.568 214.14 104.406 210.707 104.406 206.585L104.406 191.542Z" fill="#B45E00"/><path fill-rule="evenodd" clip-rule="evenodd" d="M107.295 191.072L111.567 187.968C113.257 186.74 115.624 187.115 116.853 188.806C118.081 190.497 117.706 192.863 116.015 194.092L111.743 197.196C110.053 198.424 107.686 198.049 106.457 196.358C105.229 194.667 105.604 192.301 107.295 191.072Z" fill="#FFCBA3"/></g><defs><clipPath id="clip0"><rect width="145.696" height="306.162" fill="white" transform="translate(0.390625)"/></clipPath></defs></svg>